<?xml version="1.0" encoding="utf-8"?><svg xmlns="http://www.w3.org/2000/svg" xmlns:xlink="http://www.w3.org/1999/xlink"><symbol viewBox="0 0 15 15" id="address-book-outline" xmlns="http://www.w3.org/2000/svg"><path fill="currentColor" d="M5.5 11.5H5v.5h.5v-.5zm5 0v.5h.5v-.5h-.5zm-4.5 0V11H5v.5h1zm4-.5v.5h1V11h-1zm.5 0h-5v1h5v-1zM8 9a2 2 0 012 2h1a3 3 0 00-3-3v1zm-2 2a2 2 0 012-2V8a3 3 0 00-3 3h1zm2-8a2 2 0 00-2 2h1a1 1 0 011-1V3zm2 2a2 2 0 00-2-2v1a1 1 0 011 1h1zM8 7a2 2 0 002-2H9a1 1 0 01-1 1v1zm0-1a1 1 0 01-1-1H6a2 2 0 002 2V6zM3.5 1h9V0h-9v1zm9.5.5v12h1v-12h-1zM12.5 14h-9v1h9v-1zM3 13.5v-12H2v12h1zm.5.5a.5.5 0 01-.5-.5H2A1.5 1.5 0 003.5 15v-1zm9.5-.5a.5.5 0 01-.5.5v1a1.5 1.5 0 001.5-1.5h-1zM12.5 1a.5.5 0 01.5.5h1A1.5 1.5 0 0012.5 0v1zm-9-1A1.5 1.5 0 002 1.5h1a.5.5 0 01.5-.5V0zM4 4H1v1h3V4zm0 6H1v1h3v-1z"/></symbol><symbol viewBox="0 0 15 15" id="attachment-outline" xmlns="http://www.w3.org/2000/svg"><path fill="none" stroke="currentColor" d="M.5 0v4.5a2 2 0 104 0v-3a1 1 0 00-2 0V5M6 .5h6.5a1 1 0 011 1v12a1 1 0 01-1 1h-10a1 1 0 01-1-1V8M11 4.5H7m4 3H7m4 3H4"/></symbol><symbol viewBox="0 0 15 15" id="branch-outline" xmlns="http://www.w3.org/2000/svg"><path fill="none" stroke="currentColor" d="M2.5 4.5a2 2 0 110-4 2 2 0 010 4zm0 0v6m2 2a2 2 0 11-2-2m2 2a2 2 0 00-2-2m2 2h5a3 3 0 003-3v-2m0 0a2 2 0 110-4 2 2 0 010 4z"/></symbol><symbol viewBox="0 0 15 15" id="bulb-on-outline" xmlns="http://www.w3.org/2000/svg"><path fill="currentColor" d="M4.076 6.47l.495.07-.495-.07zm-.01.07l-.495-.07.495.07zm6.858-.07l.495-.07-.495.07zm.01.07l-.495.07.495-.07zM9.5 12.5v.5a.5.5 0 00.5-.5h-.5zm-4 0H5a.5.5 0 00.5.5v-.5zm-.745-3.347l.396-.306-.396.306zm5.49 0l-.396-.306.396.306zM6 15h3v-1H6v1zM3.58 6.4l-.01.07.99.14.01-.07-.99-.14zM7.5 3a3.959 3.959 0 00-3.92 3.4l.99.14A2.959 2.959 0 017.5 4V3zm3.92 3.4A3.959 3.959 0 007.5 3v1a2.96 2.96 0 012.93 2.54l.99-.14zm.01.07l-.01-.07-.99.14.01.07.99-.14zm-.79 2.989c.63-.814.948-1.875.79-2.99l-.99.142a2.951 2.951 0 01-.59 2.236l.79.612zM9 10.9v1.6h1v-1.599H9zm.5 1.1h-4v1h4v-1zm-3.5.5v-1.599H5V12.5h1zM3.57 6.47a3.951 3.951 0 00.79 2.989l.79-.612a2.951 2.951 0 01-.59-2.236l-.99-.142zM6 10.9c0-.823-.438-1.523-.85-2.054l-.79.612c.383.495.64.968.64 1.442h1zm3.85-2.054C9.437 9.378 9 10.077 9 10.9h1c0-.474.257-.947.64-1.442l-.79-.612zM7 0v2h1V0H7zM0 8h2V7H0v1zm13 0h2V7h-2v1zM3.354 3.646l-1.5-1.5-.708.708 1.5 1.5.708-.708zm9 .708l1.5-1.5-.708-.708-1.5 1.5.708.708z"/></symbol><symbol viewBox="0 0 15 15" id="settings" xmlns="http://www.w3.org/2000/svg"><path fill="none" stroke="currentColor" d="M7.5 12.5V15m5-15v2.5M2.5 0v6.5m0 2V15m5-4.5V0m5 4.5V15m-2-10.5h4v-2h-4v2zm-5 8h4v-2h-4v2zm-5-4h4v-2h-4v2z"/></symbol><symbol viewBox="0 0 15 15" id="stack" xmlns="http://www.w3.org/2000/svg"><path fill="none" stroke="currentColor" d="M2.5 9v5.5h10V9M4 12.5h7M4 10l7 .7M4.3 7.5L11 9M5.3 4.5l6.1 3.1M7 2l5 4.5M9.5.5l3.5 5"/></symbol></svg>